<svg xmlns="http://www.w3.org/2000/svg" viewBox="0 0 32 32" width="32" height="32">
  <!-- Lightbulb -->
  <path d="M16 2C12.13 2 9 5.13 9 9c0 2.38 1.19 4.47 3 5.74V17c0 1.1.9 2 2 2h4c1.1 0 2-.9 2-2v-2.26c1.81-1.27 3-3.36 3-5.74 0-3.87-3.13-7-7-7z" fill="#FFD700"/>
  <path d="M16 2C12.13 2 9 5.13 9 9c0 2.38 1.19 4.47 3 5.74V17c0 1.1.9 2 2 2h4c1.1 0 2-.9 2-2v-2.26c1.81-1.27 3-3.36 3-5.74 0-3.87-3.13-7-7-7z" fill="none" stroke="#FF8C00" stroke-width="1"/>
  
  <!-- Base -->
  <rect x="14" y="19" width="4" height="2" fill="#8B4513"/>
  <rect x="13" y="21" width="6" height="1" fill="#8B4513"/>
  
  <!-- Glow effect -->
  <circle cx="16" cy="12" r="2" fill="#FFFFE0" opacity="0.6"/>
</svg>
